<?xml version="1.0" encoding="utf-8"?>
<!-- Generator: Adobe Illustrator 23.0.6, SVG Export Plug-In . SVG Version: 6.00 Build 0)  -->
<svg version="1.1" id="Layer_1" xmlns="http://www.w3.org/2000/svg" xmlns:xlink="http://www.w3.org/1999/xlink" x="0px" y="0px"
	 viewBox="0 0 1200 1215" style="enable-background:new 0 0 1200 1215;" xml:space="preserve">
<style type="text/css">
	.st0{fill:#00643C;}
</style>
<g transform="translate(0.000000,1215.000000) scale(0.100000,-0.100000)">
	<path class="st0" d="M5649.9,12145.9c-2-2-39.1-6-83.1-9c-43.1-3-101.2-7-129.2-10c-27-2-72.1-6-98.2-8c-26-3-60.1-7-75.1-10
		c-15-4-54.1-9-87.1-12c-33.1-3-73.1-8-90.1-10c-16-3-41.1-7-55.1-9c-38.1-6-92.2-14.9-120.2-20.9c-14-3-45.1-7-68.1-10
		c-24-2-51.1-8-60.1-13c-10-5-42.1-12-72.1-15.9c-30.1-4-61.1-12-68.1-16.9c-7-6-15-8-18-5c-3,3-62.1-10-132.2-28.9
		s-137.2-35.9-149.2-38.9c-49.1-11-284.5-85.7-376.6-118.6c-1124.9-406.5-2077.5-1107.9-2791.7-2056.4
		c-76.1-100.6-144.2-195.3-151.3-209.2c-8-14.9-22-35.9-31.1-45.8c-10-11-24-31.9-30.1-47.8c-7-14.9-17-27.9-21-27.9c-5,0-6-4-3-8
		c3-5-4-17.9-14-29.9c-11-12-20-25.9-20-31.9c0-5-4-10-8-10c-4,0-14-15.9-21-35.9c-7-18.9-19-37.9-27-40.8c-8-3-11-9-8-13.9s1-9-3-9
		c-5,0-14-14.9-21-32.9c-7-17.9-20-41.8-30.1-52.8c-10-10-19-22.9-20-28.9c-1-5-34.1-69.7-73.1-142.5
		c-291.5-542-512.9-1192.6-614-1810.3c-41.1-250.1-76.1-603.8-76.1-768.1v-70.7l93.2-7c164.3-12,370.6,21.9,541.9,90.7
		c50.1,18.9,210.4,94.6,356.6,168.4c146.2,72.7,308.5,147.5,360.6,167.4c189.3,68.7,402.7,96.6,582,75.7
		c57.1-6,106.2-13.9,108.2-15.9c3-3-27-65.8-66.1-141.5c-39.1-74.7-92.2-187.3-118.2-248.1l-48.1-112.6l-81.1,6
		c-106.2,8-257.4-15.9-392.7-60.8c-62.1-20.9-221.4-93.7-397.7-182.3c-404.7-204.2-536.9-245.1-795.3-246.1H5.5l5-54.8
		c15-174.4,34.1-353.7,39.1-358.7c3-3,64.1-6,136.2-8c219.4-6,347.6,33.9,649.1,201.3c313.5,174.4,419.7,220.2,577,250.1
		c75.1,14.9,239.4,23.9,249.4,13.9c3-4-8-59.8-24-124.5c-16-64.8-37.1-154.4-45.1-198.3c-9-43.8-18-88.7-21-100.6
		c-4-17.9-14-21.9-81.1-26.9c-183.3-15.9-301.5-62.8-624-250.1c-276.5-160.4-381.6-195.3-600-202.2l-143.2-5l6-41.8
		c4-21.9,28-119.6,52.1-215.2c25-95.6,48.1-184.3,50.1-197.3c5-19.9,11-21.9,77.1-21.9c158.3,1,291.5,51.8,533.9,207.2
		c268.4,171.4,425.7,231.1,612,231.1h65.1l-7-45.8c-3-25.9-6-115.6-6-199.3v-153.4h-53.1c-69.1,0-194.3-31.9-276.5-69.7
		c-35.1-16.9-145.2-83.7-245.4-148.4c-100.2-64.8-196.3-125.5-215.4-135.5c-72.1-35.9-179.3-65.8-258.4-71.7c-46.1-3-83.1-7-83.1-9
		c0-8,101.2-256,145.2-354.7c54.1-123.5,57.1-125.5,162.3-85.7c76.1,27.9,116.2,52.8,248.4,157.4
		c133.2,105.6,209.3,154.4,289.5,186.3c74.1,29.9,188.3,52.8,266.4,52.8h59.1l6-36.9c13-76.7,46.1-258,51.1-278
		c5-19.9,0-20.9-83.1-26.9c-161.3-11-258.4-59.8-460.8-234.1c-122.2-103.6-191.3-147.5-261.4-163.4c-29-7-52.1-16.9-52.1-21.9
		c0-22.9,243.4-424.4,257.4-424.4c12,0,75.1,51.8,178.3,143.5c200.3,179.3,298.5,238.1,447.7,269c42.1,9,79.1,15.9,81.1,15.9
		c2,0-16,70.7-40.1,156.4c-23,85.7-43.1,163.4-43.1,172.4c0,13.9,15,17.9,93.2,22.9c290.5,17.9,601,144.5,841.4,342.7l58.1,47.8
		l3,109.6c6,230.1,96.2,400.5,441.7,841.9c229.4,291.9,292.5,392.5,331.6,523.1c35.1,120.6,8,318.8-91.2,662.5
		c-93.2,324.8-118.2,474.2-118.2,722.3c-1,181.3,12,280,58.1,450.3c93.2,341.7,313.5,698.4,566.9,915.6
		c71.1,60.8,144.2,110.6,123.2,82.7c-172.3-225.2-244.4-338.7-329.5-512.1c-116.2-234.1-180.3-469.3-193.3-700.4
		c-15-265,14-464.3,118.2-804c117.2-381.6,146.2-540,137.2-735.3c-9-213.2-80.1-350.7-377.6-734.3
		c-278.5-360.7-364.6-515.1-390.7-708.4c-28-200.3,35.1-424.4,215.4-773.1l73.1-140.5l-62.1-53.8
		c-165.3-143.5-298.5-234.1-471.8-319.8c-205.3-101.6-399.7-156.4-555.9-156.4c-138.2,0-169.3,23.9-231.4,181.3l-44.1,109.6l-60.1-6
		c-43.1-4-86.1-18.9-153.3-50.8c-81.1-39.9-109.2-61.8-230.4-177.3c-75.1-72.7-150.3-141.5-166.3-154.4l-28-21.9l28-36.9
		c47.1-62.8,186.3-234.1,231.4-283.9l42.1-46.8l98.2,110.6c112.2,126.5,215.4,213.2,306.5,255.1c74.1,35.9,107.2,45.8,107.2,34.9
		c0-4,29-58.8,64.1-120.6c54.1-95.6,62.1-113.6,48.1-118.6c-127.2-42.8-217.4-118.6-375.6-315.8l-48.1-59.8l98.2-98.6
		c54.1-53.8,132.2-129.5,174.3-167.4l77.1-68.7l60.1,81.7c66.1,91.7,169.3,199.3,233.4,243.1c36.1,24.9,42.1,25.9,50.1,12
		c5-9,38.1-52.8,74.1-98.6c36.1-44.8,65.1-84.7,65.1-87.7s-19-18.9-41.1-35.9c-55.1-40.8-229.4-257-229.4-284.9
		c0-23.9,416.7-325.8,429.7-311.8c4,5,15,42.8,25,83.7c32.1,142.5,127.2,310.8,333.6,590.8c179.3,244.1,256.4,371.6,310.5,514.1
		c53.1,140.5,67.1,305.9,38.1,443.4c-8,37.9-13,70.7-11,72.7c7,7,107.2-204.2,127.2-266c29-94.6,36.1-235.1,15-338.7
		c-32.1-159.4-103.2-308.9-286.5-602.8c-174.3-279-242.4-422.4-278.5-589.8l-20-91.7l107.2-58.8c173.3-95.6,239.4-131.5,243.4-131.5
		c3,0,5,23.9,7,52.8c3,76.7,44.1,238.1,92.2,361.7c24,59.8,124.2,270,224.4,467.3c100.2,197.3,195.3,398.5,213.4,446.3
		c118.2,325.8,76.1,520.1-214.4,985.3c-144.2,230.1-240.4,396.5-280.5,483.2c-161.3,352.7-152.3,625.7,33.1,931.5
		c62.1,102.6,110.2,169.4,287.5,396.5c146.2,188.3,215.4,292.9,267.4,402.5c59.1,126.5,72.1,196.3,66.1,349.7
		c-7,169.4-32.1,272-146.2,600.8c-126.2,362.7-154.3,478.2-171.3,700.4c-39.1,516.1,161.3,1041.1,537.9,1410.8
		c71.1,68.7,235.4,192.3,257.4,192.3c4,0-29-45.8-72.1-101.6c-289.5-373.6-416.7-674.5-453.8-1074c-6-68.7-9-176.3-6-239.1
		c12-230.1,51.1-386.6,192.3-761.2c147.2-392.5,194.3-607.7,182.3-832.9c-12-230.1-96.2-398.5-372.6-747.2
		c-67.1-84.7-144.2-185.3-172.3-224.2c-196.3-273-249.4-489.2-183.3-745.2c41.1-160.4,116.2-305.9,335.6-644.6
		c215.4-331.8,295.5-498.1,329.5-677.5c48.1-251.1-10-457.3-256.4-906.6c-255.4-466.3-333.6-663.5-356.6-898.7l-8-86.7l76.1-31.9
		c41.1-16.9,127.2-50.8,190.3-73.7c63.1-23.9,123.2-46.8,132.2-49.8c16-6,17-1,11,57.8c-7,80.7,11,227.2,43.1,346.7
		c40.1,148.4,100.2,288.9,238.4,556.9c235.4,457.3,278.5,551,316.5,694.4c55.1,204.2,33.1,379.6-76.1,608.7
		c-53.1,112.6-81.1,160.4-244.4,410.5c-222.4,338.7-308.5,504.1-356.6,682.5c-29,108.6-27,333.8,4,433.4
		c51.1,160.4,120.2,272,347.6,562.9c160.3,205.2,214.4,282.9,265.4,383.6c79.1,155.4,106.2,288.9,97.2,471.2
		c-10,200.3-63.1,387.6-187.3,669.5c-154.3,349.7-215.4,521.1-245.4,697.4c-78.1,446.3,41.1,921.6,324.5,1300.2
		c104.2,139.5,344.6,368.6,386.6,368.6c28,0,26-33.9-5-73.7c-270.5-358.7-380.6-647.6-411.7-1071c-23-323.8,28-540,241.4-1022.2
		c236.4-534,290.5-727.3,277.5-991.3c-15-282-98.2-459.3-393.7-834.9c-212.4-270-281.5-403.5-306.5-589.8
		c-26-197.3,38.1-421.4,193.3-675.5c23-36.9,91.2-139.5,151.3-229.1c328.5-488.2,403.7-662.5,403.7-933.5
		c0-231.1-40.1-347.7-298.5-871.8c-244.4-497.2-300.5-671.5-297.5-931.5c2-174.4-1-163.4,40.1-174.4
		c96.2-24.9,164.3-39.9,260.4-58.8c58.1-12,115.2-22.9,127.2-25.9c21-5,22-3,11,21.9c-18,45.8-15,350.7,5,456.3
		c50.1,266,95.2,382.6,365.6,946.5c156.3,327.8,197.3,462.3,195.3,642.6c-2,120.6-24,217.2-79.1,344.7
		c-59.1,138.5-110.2,223.2-317.5,537c-214.4,321.8-309.5,495.2-353.6,647.6c-22,75.7-27,109.6-27,214.2
		c0,238.1,55.1,362.7,300.5,674.5c207.3,265,276.5,391.5,319.5,582.8c27,123.5,43.1,153.4,95.2,180.3
		c41.1,21.9,72.1,17.9,219.4-24.9c267.4-76.7,447.7-76.7,721.2,4c220.4,64.8,264.4,39.9,309.5-175.3
		c36.1-170.4,114.2-311.8,308.5-556.9c173.3-219.2,245.4-340.7,285.5-482.2c33.1-117.6,31.1-293.9-6-416.5
		c-44.1-147.5-142.2-328.8-327.5-608.7c-210.4-315.8-238.4-360.7-300.5-483.2c-131.2-260-155.3-457.3-83.1-703.4
		c33.1-113.6,79.1-220.2,229.4-531c181.3-374.6,248.4-556.9,292.5-791.1c20-106.6,23-412.5,5-456.3c-13-31.9-28-33.9,208.3,17.9
		c202.3,43.8,228.4,51.8,226.4,66.8c0,6,3,45.8,7,86.7c16,157.4-28,385.6-118.2,608.7c-25,62.8-117.2,259-204.3,437.4
		c-220.4,449.3-267.4,579.8-278.5,777.1c-14,267,85.1,511.1,391.7,956.4c299.5,433.4,391.7,674.5,357.6,928.5
		c-25,187.3-94.2,319.8-320.5,608.7c-223.4,283.9-298.5,415.5-348.6,602.8c-22,83.7-26,117.6-27,256c-1,262,41.1,415.5,246.4,879.7
		c172.3,391.5,220.4,528,252.4,709.4c24,137.5,28,235.1,16,393.5c-30.1,407.5-146.2,705.4-411.7,1058.1c-32.1,42.8-34.1,72.7-4,72.7
		c34.1,0,264.4-209.2,356.6-323.8c55.1-68.7,150.3-216.2,191.3-298.9c208.3-410.5,242.4-863.8,99.2-1299.2
		c-21-63.8-88.1-230.1-149.2-370.6c-180.3-417.4-217.4-552.9-216.4-806c0-138.5,3-163.4,27-242.1c52.1-167.4,117.2-275,333.6-551.9
		c291.5-371.6,360.6-508.1,371.6-738.3c7-126.5-5-213.2-45.1-330.8c-55.1-165.4-113.2-271-322.5-592.8
		c-210.4-321.8-254.4-401.5-308.5-552.9c-76.1-216.2-67.1-396.5,35.1-650.6c20-50.8,86.1-185.3,145.2-300.9
		c232.4-446.3,308.5-614.7,353.6-783.1c31.1-116.6,49.1-265,42.1-343.7c-4-34.9-4-63.8-2-63.8c9,0,244.4,89.7,327.5,124.5
		c77.1,31.9,87.1,39.9,83.1,57.8c-2,12-7,53.8-10,91.7c-20,210.2-107.2,423.4-360.6,885.7c-171.3,311.8-235.4,474.2-257.4,649.6
		c-23,177.3,18,358.7,128.2,572.9c53.1,103.6,90.2,164.4,303.5,497.2c292.5,457.3,338.6,726.3,177.3,1045.1
		c-49.1,97.6-109.2,184.3-281.5,404.5c-82.1,104.6-172.3,225.2-200.3,269c-247.4,375.6-248.4,666.5-5,1311.1
		c180.3,478.2,221.4,694.4,191.3,1019.2c-37.1,397.5-162.3,693.4-454.8,1071c-83.1,107.6-82.1,114.6,7,55.8
		c270.5-178.3,525.9-538,641.1-901.6c58.1-180.3,78.1-314.8,78.1-518.1c1-295.9-31.1-442.4-197.3-911.6
		c-88.1-250.1-115.2-365.6-122.2-528c-7-163.4,8-230.1,82.1-378.6c54.1-107.6,109.2-187.3,367.6-525
		c234.4-307.9,317.5-495.2,318.5-716.3c0-236.1-80.1-437.4-345.6-865.8c-167.3-270-243.4-411.5-287.5-538
		c-30-87.7-32.1-103.6-32.1-224.2c0-126.5,1-132.5,44.1-259c31.1-92.7,95.2-229.1,222.4-480.2c236.4-464.3,302.5-634.6,315.5-812
		c3-42.8,8-77.7,11-77.7c6,0,112.2,56.8,253.4,136.5l96.2,53.8l-18,86.7c-36.1,172.4-95.2,299.9-279.5,599.8
		c-143.2,234.1-212.4,366.6-250.4,484.2c-74.1,232.1-56.1,413.5,67.1,639.6c24,44.8,45.1,81.7,47.1,81.7c2,0-4-27.9-12-61.8
		c-21-88.7-20-264,3-351.7c40.1-156.4,123.2-312.8,281.5-529c284.5-390.5,373.6-549,407.7-728.3l12-61.8l150.3,106.6
		c194.3,138.5,299.5,222.2,288.5,230.1c-5,3-31.1,39.9-58.1,80.7c-27,40.8-87.1,113.6-134.2,160.4l-86.1,84.7l74.1,96.6l74.1,96.6
		l29-17.9c66.1-41.8,221.4-208.2,279.5-299.9l28-42.8l148.2,139.5c81.1,76.7,161.3,153.4,177.3,169.4l29,30.9l-86.1,102.6
		c-130.2,157.4-242.4,251.1-329.5,272c-16,4-28,10-28,12c0,3,29,58.8,65.1,123.5c76.1,135.5,64.1,131.5,197.3,62.8
		c57.1-29.9,100.2-64.8,194.3-158.4c66.1-65.8,135.2-138.5,151.3-162.4l31.1-41.8l54.1,61.8c30.1,34.9,101.2,120.6,157.3,191.3
		l102.2,127.5l-27,14.9c-16,7-89.1,72.7-163.3,145.5c-75.1,72.7-163.3,148.4-196.3,168.4c-75.1,44.8-177.3,79.7-223.4,75.7
		c-35.1-3-36.1-5-75.1-97.6c-68.1-165.4-99.2-189.3-244.4-189.3c-241.4,1-586,138.5-859.4,343.7
		c-104.2,77.7-215.4,175.3-215.4,189.3c0,6,29,65.8,64.1,134.5c178.3,345.7,245.4,584.8,217.4,777.1
		c-29,198.3-112.2,347.7-391.7,707.4c-294.5,379.6-367.6,520.1-377.6,729.3c-9,188.3,20,355.7,122.2,688.4
		c111.2,360.7,137.2,502.1,137.2,739.3c0,184.3-18,314.8-67.1,483.2c-75.1,260-220.4,531-432.7,812c-42.1,53.8-36.1,52.8,52.1-13.9
		c188.3-141.5,403.7-429.4,518.9-693.4c123.2-283.9,171.3-556.9,148.2-844.9c-15-188.3-43.1-329.8-120.2-602.8
		c-72.1-253.1-90.2-340.7-98.2-480.2c-11-202.2,40.1-302.9,369.6-723.3c322.5-411.5,405.7-571.9,416.7-808l4-111.6l62.1-48.8
		c250.4-201.3,605-340.7,870.5-340.7c43.1,0,57.1-4,57.1-13.9c0-8-20-85.7-45.1-171.4c-48.1-167.4-48.1-173.4,6-173.4
		c36.1,0,126.2-27.9,184.3-56.8c81.1-40.8,152.3-94.6,280.5-207.2c150.3-133.5,193.3-163.4,206.3-143.5
		c33.1,49.8,182.3,293.9,213.4,349.7c27,48.8,34.1,68.7,24,70.7c-120.2,30.9-178.3,64.8-318.5,185.3
		c-192.3,165.4-295.5,216.2-456.8,227.2l-81.1,6l9,40.8c5,21.9,20,96.6,32.1,165.4l22,124.5l91.2-1c148.2-3,287.5-54.8,423.7-157.4
		c30-23.9,97.2-74.7,149.2-113.6c108.2-82.7,200.3-130.5,268.4-137.5l48.1-6l67.1,158.4c37.1,86.7,80.1,192.3,97.2,235.1l29,76.7
		h-57.1c-77.1,0-193.3,30.9-278.5,72.7c-38.1,19.9-138.2,80.7-223.4,137.5c-239.4,157.4-384.6,217.2-527.9,218.2h-53.1v199.3v199.3
		h58.1c181.3,0,333.6-58.8,625-241.1c88.1-54.8,188.3-112.6,222.4-128.5c94.2-43.8,211.4-69.7,297.5-66.8l73.1,3l49.1,184.3
		c27,101.6,55.1,207.2,62.1,235.1l13,51.8l-152.3,5c-221.4,6-327.5,40.8-588,192.3c-316.5,182.3-466.8,243.1-637.1,258l-80.1,7
		l-18,96.6c-10,52.8-32.1,152.4-50.1,223.2l-32.1,126.5h89.1c205.3,0,369.6-57.8,706.2-245.1c180.3-101.6,323.5-168.4,418.7-195.3
		c68.1-18.9,104.2-22.9,242.4-22.9c89.1,0,164.3,2,167.3,5c6,6,12,84.7,22,279l7,134.5h-144.2c-268.4,1-418.7,47.8-801.3,250.1
		c-341.6,181.3-471.8,223.2-713.2,232.1l-149.2,6l-67.1,149.4c-37.1,82.7-90.1,193.3-117.2,246.1l-51.1,97.6l36.1,7
		c20,5,119.2,8,221.4,7c165.3-1,195.3-4,280.5-25.9c163.3-43.8,260.4-84.7,552.9-231.1c393.7-197.3,549.9-245.1,793.3-245.1
		c170.3,0,156.3-13,156.3,150.4c0,157.4-19,366.6-56.1,606.7c-290.5,1893-1492.5,3544.8-3214.4,4417.6
		c-688.1,348.7-1405.3,553.9-2208.7,630.7C6377.1,12143.9,5660.9,12156.9,5649.9,12145.9z M6168.7,11407.6
		c82.1-188.3,153.3-343.7,159.3-345.7c6-2,184.3-15.9,396.7-29.9c212.4-14.9,386.6-27.9,387.6-28.9c1-1-130.2-119.6-293.5-264
		c-162.3-143.5-294.5-265-292.5-270c2-4,61.1-160.4,133.2-346.7l129.2-337.7l96.2,83.7c236.4,209.2,546.9,369.6,869.4,451.3
		c174.3,43.8,402.7,80.7,402.7,64.8c0-2-24-41.8-53.1-86.7c-170.3-262-310.5-544-436.7-877.7l-11-28.9l42.1,31.9
		c217.4,162.4,493.8,289.9,755.3,347.7c91.2,19.9,324.5,53.8,330.6,47.8c2-2-40.1-61.8-93.2-132.5
		c-216.4-289.9-355.6-513.1-513.9-829.9c-57.1-114.6-88.1-164.4-105.2-172.4c-20-9-41.1-2-142.2,44.8
		c-513.9,237.1-1006.7,368.6-1560.6,416.5c-192.3,15.9-591,13.9-791.3-6c-519.9-49.8-987.6-175.3-1486.5-400.5
		c-122.2-54.8-147.2-62.8-167.3-53.8c-17,7-47.1,57.8-103.2,168.4C3671.6,9150,3510.3,9410.1,3305,9686
		c-52.1,71.7-94.2,130.5-92.2,132.5c6,6,240.4-27.9,330.6-47.8c260.4-57.8,537.9-185.3,754.3-347.7l43.1-30.9l-26,67.7
		c-103.2,277-261.4,590.8-421.7,837.9c-29,44.8-53.1,84.7-53.1,88.7c0,10,120.2-6,266.4-35.9c203.3-41.8,402.7-110.6,585-202.2
		c167.3-83.7,281.5-160.4,425.7-284.9l91.2-78.7l130.2,338.7c71.1,185.3,130.2,341.7,132.2,345.7c2,5-130.2,126.5-292.5,270
		c-163.3,144.5-294.5,263-293.5,264c1,1,175.3,13.9,387.6,28.9c212.4,13.9,390.7,27.9,396.7,29.9c6,1,82.1,167.4,169.3,368.6
		c144.2,332.8,160.3,363.6,170.3,341.7C6015.5,11760.3,6087.6,11594.9,6168.7,11407.6z M1386.8,9187.9
		c86.1-62.8,231.4-211.2,302.5-309.8c113.2-157.4,204.3-354.7,252.4-547c15-59.8,29-114.6,31.1-121.5c2-8,19-3,52.1,17.9
		c136.2,82.7,339.6,161.4,517.9,199.3c138.2,29.9,393.7,37.9,530.9,15.9c96.2-13.9,239.4-50.8,307.5-78.7l32.1-13l-100.2-73.7
		c-365.6-273-717.2-626.7-984.6-989.3c-69.1-93.7-90.2-116.6-106.2-113.6c-11,3-47.1,12-80.1,20.9
		c-244.4,64.8-500.8,39.9-805.3-77.7c-47.1-18.9-187.3-78.7-310.5-134.5c-353.6-159.4-488.8-200.3-670.1-200.3
		c-101.2,0-215.4,16.9-210.4,30.9c2,4,51.1,60.8,109.2,125.5c511.9,564.9,807.3,1061.1,931.6,1562.2
		c42.1,172.4,59.1,319.8,59.1,520.1c0,149.4,2,178.3,17,194.3C1288.6,9243.7,1318.6,9237.7,1386.8,9187.9z M10735.3,9217.8
		c13-13,16-44.8,16-193.3c0-203.2,17-349.7,59.1-523.1c124.2-501.1,413.7-988.3,926.5-1557.2c61.1-67.7,112.2-126.5,114.2-131.5
		c5-13-116.2-29.9-212.4-29.9c-159.3,0-312.5,42.8-577,161.4c-385.6,172.4-533.9,228.2-696.2,262c-172.3,34.9-373.6,28.9-536.9-15.9
		c-39.1-11-74.1-16.9-79.1-13.9c-4,3-40.1,49.8-80.1,104.6c-252.4,351.7-643.1,748.2-981.6,996.3c-47.1,33.9-86.1,65.8-88.1,69.7
		c-4,12,163.3,63.8,273.5,85.7c137.2,27.9,424.7,25.9,571-4c181.3-35.9,406.7-121.5,541.9-205.2l42.1-25.9l22,97.6
		c65.1,282,203.3,539,398.7,741.2c107.2,110.6,216.4,197.3,249.4,197.3C10710.3,9233.7,10727.3,9226.8,10735.3,9217.8z
		 M6251.9,8869.1c402.7-68.7,759.3-330.8,878.5-644.6c42.1-112.6,36.1-116.6-90.2-73.7c-87.1,29.9-96.2,31.9-260.4,31.9
		c-151.3,0-179.3-3-245.4-22.9c-161.3-50.8-297.5-146.5-319.5-226.2c-55.1-193.3-49.1-465.3,12-637.6c11-29.9,19-38.9,33.1-36.9
		c32.1,6,65.1,43.8,105.2,122.5c41.1,81.7,77.1,118.6,115.2,118.6c13,0,53.1-11,90.1-24.9c154.3-57.8,284.5-53.8,404.7,12l65.1,34.9
		l41.1-20.9c102.2-53.8,128.2-230.1,73.1-500.1c-65.1-326.8-263.4-683.5-510.9-920.6c-218.4-210.2-420.7-305.9-645.1-305.9
		c-224.4,0-426.7,95.6-645.1,305.9c-316.5,303.9-532.9,767.1-534.9,1150.7c-1,140.5,10,195.3,51.1,240.1
		c44.1,49.8,99.2,50.8,203.3,3c114.2-50.8,195.3-51.8,352.6-5c129.2,39.9,161.3,37.9,244.4-12c90.2-53.8,100.2-54.8,112.2-10
		c36.1,126.5,38.1,316.8,5,460.3c-14,65.8-20,73.7-72.1,121.5c-182.3,162.4-499.8,211.2-776.3,121.5
		c-100.2-32.9-108.2-26.9-79.1,56.8c52.1,154.4,200.3,339.7,355.6,446.3c138.2,94.6,331.6,176.3,499.8,211.2
		C5870.2,8896,6084.6,8898,6251.9,8869.1z M5234.2,7993.3c161.3-33.9,318.5-149.4,318.5-235.1c0-15.9-4-19.9-17-13.9
		c-115.2,43.8-301.5,68.7-403.7,54.8c-75.1-11-161.3-41.8-181.3-65.8c-17-20.9-24-17.9-54.1,24.9c-55.1,79.7-52.1,159.4,8,202.2
		C4970.7,8007.3,5106,8021.2,5234.2,7993.3z M7036.2,7982.4c109.2-33.9,138.2-143.5,63.1-233.1l-26-29.9l-28,19.9
		c-16,12-51.1,30.9-77.1,42.8c-69.1,30.9-231.4,28.9-363.6-6c-52.1-13-98.2-22.9-102.2-19.9c-5,2-8,23.9-8,46.8
		c0,37.9,5,47.8,40.1,78.7c70.1,63.8,166.3,103.6,278.5,115.6C6895.9,8006.3,6976.1,8001.3,7036.2,7982.4z"/>
	<path class="st0" d="M5690,9871.1c-168-129-307-239-309-245c-7-23,22-24,141-7c68,10,205,22,306,26c212,11,492,0,670-26
		c119-17,148-16,141,7c-6,16-617,481-632,480C6001,10106.1,5858,10000.1,5690,9871.1z"/>
	<path class="st0" d="M5820,7008.1c-46-14-110-51-110-64c0-23,16-37,61-51c24-8,76-26,114-40c85-31,147-33,223-6
		c184,64,187,65,190,88c4,27-40,56-109,72c-39,10-60,9-117-5c-64-16-74-16-131-1C5873,7018.1,5858,7019.1,5820,7008.1z"/>
	<path class="st0" d="M5542,6601.1c-6-11,9-34,62-92c118-128,168-172,236-205c60-30,72-32,165-32s105,2,165,32c68,33,117,77,236,205
		c62,67,70,80,59,95s-20,16-92,5c-221-34-550-35-724-2C5577,6621.1,5552,6619.1,5542,6601.1z"/>
	<path class="st0" d="M9330,652.1v-45h105h105v-280v-280h55h55v280v280h105h105v45v45h-265h-265V652.1z"/>
	<path class="st0" d="M9940,372.1v-325h50h50v253l1,252l102-253l102-253l44,3l45,3l103,260l102,260l1-262v-263h50h50v325v326l-77-3
		l-78-3l-94-242c-52-134-97-243-100-243s-49,110-101,245l-95,245h-77h-78V372.1z"/>
</g>
</svg>
